<!-- Generator: Adobe Illustrator 21.1.0, SVG Export Plug-In  -->
<svg version="1.1"
	 xmlns="http://www.w3.org/2000/svg" xmlns:xlink="http://www.w3.org/1999/xlink" xmlns:a="http://ns.adobe.com/AdobeSVGViewerExtensions/3.0/"
	 x="0px" y="0px" width="611px" height="83px" viewBox="0 0 611 83" style="enable-background:new 0 0 611 83;"
	 xml:space="preserve">
<style type="text/css">
	.st0{fill:#FFFFFF;}
</style>
<defs>
</defs>
<g>
	<g>
		<g>
			<path class="st0" d="M149.7,75.2l-0.5,6.7c-2,0.7-4.1,1.1-6.4,1.1c-2.8,0-4.9-0.6-6.5-1.8c-1.6-1.2-2.6-3.2-3-6
				c-1.6,2.5-4,4.4-7.2,5.8c-3.1,1.4-6.4,2.1-9.9,2.1c-5.2,0-9.5-1.2-12.9-3.7c-3.4-2.4-5.1-5.9-5.1-10.5c0-4,1.8-7.5,5.3-10.4
				c3.5-2.9,8.7-5,15.4-6.1l14.1-2.3v-3c0-3.5-1.1-6.4-3.3-8.5c-2.2-2.1-5.2-3.2-9.1-3.2c-3.5,0-6.6,0.8-9.2,2.5
				c-2.6,1.7-4.6,4.2-6,7.5l-6.3-4.6c1.4-4,4-7.1,7.9-9.4c3.8-2.3,8.4-3.5,13.5-3.5c6.3,0,11.3,1.5,15.2,4.6c3.8,3,5.7,7.5,5.7,13.5
				v26.1c0,1.3,0.3,2.2,1,2.9c0.6,0.6,1.7,1,3.1,1S148.3,75.6,149.7,75.2z M128.1,72.4c3.2-2.1,4.8-4.9,4.8-8.3v-7.3L121.1,59
				c-4.7,0.8-8.3,2.1-10.6,3.7c-2.3,1.6-3.5,3.6-3.5,6.1c0,2.2,0.8,3.9,2.5,5c1.7,1.2,4.1,1.7,7.1,1.7
				C121.1,75.5,124.9,74.5,128.1,72.4z"/>
			<path class="st0" d="M199.2,28.9l-1.7,8.3c-1.7-0.9-3.9-1.4-6.7-1.4c-2.3,0-4.5,0.7-6.6,2c-2.2,1.3-3.9,3.3-5.3,5.9
				c-1.4,2.6-2.1,5.8-2.1,9.6v28.6h-8.5v-53h6.9l1.2,8.7c3-6.5,8.6-9.7,17-9.7C195.9,27.9,197.8,28.2,199.2,28.9z"/>
			<path class="st0" d="M261.9,28.9l-22,53h-8.5l-22-53h9.6l16.7,44.4L253,28.9H261.9z"/>
			<path class="st0" d="M324.4,58.6h-39.9c0.5,5.4,2.3,9.5,5.4,12.5c3.1,3,7,4.5,11.9,4.5c3.9,0,7.1-0.7,9.7-2
				c2.6-1.3,4.3-3.3,5.2-5.8l7.1,3.7c-2.1,3.7-4.9,6.6-8.5,8.6c-3.5,2-8.1,3-13.6,3c-8,0-14.3-2.4-18.8-7.3
				c-4.6-4.9-6.8-11.6-6.8-20.2c0-8.6,2.2-15.4,6.5-20.2c4.3-4.9,10.5-7.3,18.5-7.3c4.9,0,9.2,1.1,12.8,3.3c3.6,2.2,6.3,5.2,8.2,8.9
				c1.8,3.7,2.8,7.9,2.8,12.6C324.8,54.6,324.7,56.6,324.4,58.6z M289.8,39.4c-2.9,2.8-4.6,6.6-5.2,11.7h32.1
				c-0.6-4.9-2.2-8.8-4.9-11.6c-2.7-2.8-6.3-4.2-10.7-4.2C296.4,35.3,292.7,36.7,289.8,39.4z"/>
			<path class="st0" d="M387.9,33c3.9,3.5,5.8,8.4,5.8,14.9v33.9h-8.5V51c0-5.5-1.2-9.5-3.5-12c-2.4-2.5-5.5-3.7-9.5-3.7
				c-2.8,0-5.5,0.6-7.9,1.9c-2.5,1.2-4.5,3.3-6.1,6c-1.6,2.8-2.4,6.3-2.4,10.5v28.2h-8.5v-53h7.4l0.5,8.3c1.8-3.2,4.2-5.5,7.3-7
				c3.1-1.5,6.6-2.3,10.5-2.3C379,27.9,384,29.6,387.9,33z"/>
			<path class="st0" d="M456.9,17.9V16c0-7.9-4.4-16-17.1-16s-17.1,8-17.1,16v12.9H412v7.3h10.6v45.7h8.5V36.2h17.7v-7.3h-17.7V16.8
				c0-5.7,2.9-8.7,8.7-9.1c5.8,0.3,8.7,3.3,8.7,9.1v1H456.9z"/>
			<path class="st0" d="M566.3,81.9l-14.6-20.4l-15,20.4h-9.9l20.3-26.7l-19.1-26.3h10.6l14,19.6l13.8-19.6h10l-19.2,26l19.5,27
				H566.3z"/>
			<path class="st0" d="M487.1,82.8c-15.1,0-27.4-12.3-27.4-27.4s12.3-27.4,27.4-27.4c15.1,0,27.4,12.3,27.4,27.4
				S502.2,82.8,487.1,82.8z M487.1,36.1c-10.7,0-19.3,8.7-19.3,19.3s8.7,19.3,19.3,19.3c10.7,0,19.3-8.7,19.3-19.3
				S497.7,36.1,487.1,36.1z"/>
		</g>
		<g>
			<path class="st0" d="M71.5,30c3.1,1.4,5.6,3.7,7.5,6.7c1.9,3,2.9,6.8,2.9,11.2v33.9h-8.5V48.8c0-4.6-1.1-8-3.4-10.2
				c-2.3-2.2-5.3-3.3-9.1-3.3c-2.8,0-5.4,0.7-7.8,2.1c-2.4,1.4-4.3,3.4-5.7,6c-1.5,2.6-2.2,5.8-2.2,9.5v29h-8.5V48.8
				c0-4.6-1.1-8-3.4-10.2c-2.3-2.2-5.3-3.3-9.1-3.3c-2.5,0-5,0.7-7.4,2c-2.4,1.3-4.4,3.3-5.9,6.1c-1.6,2.8-2.3,6.2-2.3,10.3v28.3H0
				v-53h7.4l0.5,8.3c1.8-3.1,4.3-5.4,7.3-7c3-1.6,6.2-2.3,9.7-2.3c3.9,0,7.5,0.9,10.8,2.6c3.3,1.8,5.8,4.3,7.5,7.7
				c1.6-3.4,4.1-6,7.6-7.7c3.5-1.8,7.1-2.6,10.8-2.6C65.1,27.9,68.4,28.6,71.5,30z"/>
		</g>
		<g>
			<path class="st0" d="M600,5.7h-2.6v7.2h-1.8V5.7h-2.6V4.3h7.1V5.7z M611,4.3v8.6h-1.8V8.8l0.2-2.3h0l-0.2,0.7l-2.1,5.7h-1.3
				l-2.2-5.7l-0.2-0.7h0l0.2,2.3v4.1h-1.8V4.3h2.3l1.8,4.7l0.6,1.7h0.1l0.6-1.7l1.8-4.7H611z"/>
		</g>
	</g>
</g>
</svg>